<?xml version="1.0" encoding="UTF-8" standalone="no"?>
<svg
   xmlns:dc="http://purl.org/dc/elements/1.1/"
   xmlns:cc="http://creativecommons.org/ns#"
   xmlns:rdf="http://www.w3.org/1999/02/22-rdf-syntax-ns#"
   xmlns:svg="http://www.w3.org/2000/svg"
   xmlns="http://www.w3.org/2000/svg"
   xmlns:xlink="http://www.w3.org/1999/xlink"
   xmlns:sodipodi="http://sodipodi.sourceforge.net/DTD/sodipodi-0.dtd"
   xmlns:inkscape="http://www.inkscape.org/namespaces/inkscape"
   inkscape:export-ydpi="33.103447"
   inkscape:export-xdpi="33.103447"
   inkscape:export-filename="C:\Users\wgabo\OneDrive\Documents\logo_small.png"
   width="210mm"
   height="297mm"
   viewBox="0 0 210 297"
   version="1.1"
   id="svg8"
   inkscape:version="1.0 (4035a4fb49, 2020-05-01)"
   sodipodi:docname="mockup_of_logo.svg">
  <defs
     id="defs2">
    <linearGradient
       id="linearGradient176"
       inkscape:collect="always">
      <stop
         id="stop172"
         offset="0"
         style="stop-color:#00ffff;stop-opacity:1;" />
      <stop
         id="stop174"
         offset="1"
         style="stop-color:#ffffff;stop-opacity:1" />
    </linearGradient>
    <linearGradient
       spreadMethod="pad"
       gradientTransform="translate(-14.3014,134.34548)"
       gradientUnits="userSpaceOnUse"
       y2="82.328804"
       x2="92.108597"
       y1="62.458599"
       x1="128.81801"
       id="linearGradient178"
       xlink:href="#linearGradient176"
       inkscape:collect="always" />
  </defs>
  <sodipodi:namedview
     inkscape:snap-others="false"
     inkscape:guide-bbox="true"
     showguides="true"
     inkscape:object-paths="true"
     id="base"
     pagecolor="#ffffff"
     bordercolor="#666666"
     borderopacity="1.0"
     inkscape:pageopacity="0.0"
     inkscape:pageshadow="2"
     inkscape:zoom="1"
     inkscape:cx="305.16125"
     inkscape:cy="517.60368"
     inkscape:document-units="mm"
     inkscape:current-layer="layer1"
     inkscape:document-rotation="0"
     showgrid="false"
     inkscape:snap-nodes="false"
     inkscape:snap-global="false"
     inkscape:window-width="1920"
     inkscape:window-height="1027"
     inkscape:window-x="1912"
     inkscape:window-y="-8"
     inkscape:window-maximized="1" />
  <metadata
     id="metadata5">
    <rdf:RDF>
      <cc:Work
         rdf:about="">
        <dc:format>image/svg+xml</dc:format>
        <dc:type
           rdf:resource="http://purl.org/dc/dcmitype/StillImage" />
        <dc:title />
      </cc:Work>
    </rdf:RDF>
  </metadata>
  <g
     style="display:inline"
     inkscape:label="Layer 1"
     inkscape:groupmode="layer"
     id="layer1">
    <path
       style="fill:#a0a0a0;stroke:none;stroke-width:0.505076"
       d=""
       id="path53"
       transform="scale(0.26458333)" />
    <path
       style="fill:#00ffff;stroke-width:0.357143"
       d=""
       id="path63"
       transform="scale(0.26458333)" />
    <path
       style="fill:#00ffff;stroke-width:0.357143"
       d=""
       id="path67"
       transform="scale(0.26458333)" />
    <path
       style="fill:#00ffff;stroke-width:0.0631345"
       d=""
       id="path77"
       transform="scale(0.26458333)" />
    <path
       style="fill:#00ffff;stroke-width:0.0631345"
       d=""
       id="path79"
       transform="scale(0.26458333)" />
    <path
       style="fill:#00ffff;stroke-width:0.0631345"
       d=""
       id="path85"
       transform="scale(0.26458333)" />
    <path
       style="fill:#00ffff;stroke-width:0.00789182"
       d=""
       id="path97"
       transform="scale(0.26458333)" />
    <rect
       ry="7.4083333"
       y="66.939583"
       x="22.489574"
       height="46.037498"
       width="69.850006"
       id="rect195"
       style="fill:#f8a974;stroke-width:0.264583;fill-opacity:1" />
    <rect
       style="display:inline;fill:#97dc96;stroke-width:0.264583;fill-opacity:1"
       id="rect195-4"
       width="69.850006"
       height="46.037498"
       x="106.09791"
       y="66.939583"
       ry="7.4083333" />
    <rect
       style="display:inline;fill:#ec857a;stroke-width:0.264583;fill-opacity:1"
       id="rect195-2"
       width="69.850006"
       height="46.037498"
       x="106.09791"
       y="125.67708"
       ry="7.4083333" />
    <rect
       style="display:inline;fill:#ada2e6;stroke-width:0.264583;fill-opacity:1"
       id="rect195-40"
       width="69.850006"
       height="46.037498"
       x="22.489567"
       y="125.67708"
       ry="7.4083333" />
    <g
       transform="matrix(1.4604642,0,0,1.4604642,-48.223495,-199.83214)"
       id="g1086">
      <path
         style="fill:url(#linearGradient178);fill-opacity:1;fill-rule:evenodd;stroke:#000000;stroke-width:0.476937"
         d="m 90.87582,234.41813 c 2.60214,10.11963 13.80006,15.23435 23.48118,12.42035 12.18269,-3.54114 18.26238,-17.17409 14.57406,-28.93853 -1.85206,-5.90738 -5.9191,-10.97567 -11.19178,-14.19552 l -44.251406,-26.9533 c 0,0 -5.186427,-3.37415 -7.917111,1.2988 -2.730683,4.67295 2.401308,7.75692 2.401308,7.75692 l 8.276813,5.0769 c 0,0 -5.18643,-3.37416 -7.91711,1.29879 -2.73068,4.67295 2.40131,7.75693 2.40131,7.75693 l 8.27681,5.07689 c 0,0 -5.18643,-3.37415 -7.91711,1.29879 -2.73068,4.67295 2.40131,7.75693 2.40131,7.75693 l 17.963076,10.83758 c -1.1475,2.9753 -1.39452,6.3461 -0.58135,9.50847 z"
         id="path160"
         sodipodi:nodetypes="sssccsccsccsccs" />
      <path
         style="fill:none;fill-rule:evenodd;stroke:#000000;stroke-width:0.476937"
         d="m 106.09791,227.81085 c -2.28963,0.99384 0.21005,3.57671 1.65181,3.80553 3.90712,0.62008 6.30051,-3.75336 5.95923,-7.10916 -0.61046,-6.00274 -7.07424,-9.22864 -12.5665,-8.11294 -4.70298,0.95536 -8.07775,4.34728 -9.68528,8.51538"
         id="path14-8" />
      <path
         style="fill:none;stroke-width:0.0467722"
         d="m 84.395945,245.4801 c -6.614226,-0.57631 -12.157093,-4.22762 -14.776823,-9.73407 -0.713817,-1.50038 -1.153073,-2.96647 -1.3848,-4.62199 -0.116361,-0.83133 -0.141544,-2.66896 -0.04859,-3.54556 0.204126,-1.9249 0.658156,-3.5172 1.47773,-5.18244 1.047072,-2.12746 2.521656,-3.83267 4.386561,-5.07261 1.760315,-1.17041 3.605932,-1.81304 5.654482,-1.96887 2.179441,-0.16578 4.596916,0.38933 6.384168,1.46596 l 0.260644,0.15701 -1.570456,4.6401 c -1.427472,4.21762 -1.577321,4.63389 -1.64583,4.57189 -0.06618,-0.0599 -0.0893,-0.0589 -0.189664,0.008 -0.235426,0.15681 -0.523795,0.46753 -0.643829,0.69373 -0.104666,0.19724 -0.12401,0.29245 -0.123544,0.60804 5.29e-4,0.31918 0.02156,0.41885 0.143584,0.67819 0.352779,0.74985 1.198425,1.46145 2.186244,1.8397 0.361672,0.13849 0.414821,0.14595 1.036039,0.14547 0.531112,-5.3e-4 0.73433,-0.021 1.075759,-0.10886 1.993157,-0.513 3.458403,-2.27715 4.005776,-4.82295 0.0916,-0.42603 0.10577,-0.63056 0.106923,-1.54349 0.0013,-0.99362 -0.006,-1.0835 -0.130476,-1.60996 -0.498751,-2.10987 -1.640671,-3.83882 -3.400407,-5.14846 -0.267745,-0.19926 -0.513448,-0.37252 -0.546005,-0.38501 -0.03256,-0.0125 -0.05949,-0.0468 -0.05986,-0.0762 -7.94e-4,-0.0583 5.098555,-15.1467 5.131337,-15.18326 0.03464,-0.0386 1.784471,0.86308 2.469798,1.27274 1.98297,1.18534 3.436435,2.32096 5.100889,3.98541 2.118725,2.11874 3.545845,4.10186 4.815145,6.69115 1.19348,2.43461 1.90689,4.90829 2.25268,7.81095 0.1188,0.99723 0.11964,3.9385 10e-4,4.9736 -0.25211,2.20728 -0.7647,4.29477 -1.53514,6.25172 -0.37831,0.96091 -1.25724,2.70922 -1.78181,3.54425 -1.65848,2.63999 -3.677802,4.73675 -6.153262,6.38918 -2.625127,1.75234 -5.52123,2.82564 -8.663366,3.21065 -0.743661,0.0911 -3.084901,0.13145 -3.835318,0.0661 z"
         id="path78" />
      <path
         style="fill:none;stroke-width:0.0467722"
         d="m 84.395945,245.4801 c -6.614226,-0.57631 -12.157093,-4.22762 -14.776823,-9.73407 -0.713817,-1.50038 -1.153073,-2.96647 -1.3848,-4.62199 -0.116361,-0.83133 -0.141544,-2.66896 -0.04859,-3.54556 0.204126,-1.9249 0.658156,-3.5172 1.47773,-5.18244 1.047072,-2.12746 2.521656,-3.83267 4.386561,-5.07261 1.760315,-1.17041 3.605932,-1.81304 5.654482,-1.96887 2.179441,-0.16578 4.596916,0.38933 6.384168,1.46596 l 0.260644,0.15701 -1.570456,4.6401 c -1.427472,4.21762 -1.577321,4.63389 -1.64583,4.57189 -0.06618,-0.0599 -0.0893,-0.0589 -0.189664,0.008 -0.235426,0.15681 -0.523795,0.46753 -0.643829,0.69373 -0.104666,0.19724 -0.12401,0.29245 -0.123544,0.60804 5.29e-4,0.31918 0.02156,0.41885 0.143584,0.67819 0.352779,0.74985 1.198425,1.46145 2.186244,1.8397 0.361672,0.13849 0.414821,0.14595 1.036039,0.14547 0.531112,-5.3e-4 0.73433,-0.021 1.075759,-0.10886 1.993157,-0.513 3.458403,-2.27715 4.005776,-4.82295 0.0916,-0.42603 0.10577,-0.63056 0.106923,-1.54349 0.0013,-0.99362 -0.006,-1.0835 -0.130476,-1.60996 -0.498751,-2.10987 -1.640671,-3.83882 -3.400407,-5.14846 -0.267745,-0.19926 -0.513448,-0.37252 -0.546005,-0.38501 -0.03256,-0.0125 -0.05949,-0.0468 -0.05986,-0.0762 -7.94e-4,-0.0583 5.098555,-15.1467 5.131337,-15.18326 0.03464,-0.0386 1.784471,0.86308 2.469798,1.27274 1.98297,1.18534 3.436435,2.32096 5.100889,3.98541 2.118725,2.11874 3.545845,4.10186 4.815145,6.69115 1.19348,2.43461 1.90689,4.90829 2.25268,7.81095 0.1188,0.99723 0.11964,3.9385 10e-4,4.9736 -0.25211,2.20728 -0.7647,4.29477 -1.53514,6.25172 -0.37831,0.96091 -1.25724,2.70922 -1.78181,3.54425 -1.65848,2.63999 -3.677802,4.73675 -6.153262,6.38918 -2.625127,1.75234 -5.52123,2.82564 -8.663366,3.21065 -0.743661,0.0911 -3.084901,0.13145 -3.835318,0.0661 z"
         id="path80" />
      <path
         style="fill:none;stroke-width:0.0467722"
         d="m 84.395945,245.4801 c -6.614226,-0.57631 -12.157093,-4.22762 -14.776823,-9.73407 -0.713817,-1.50038 -1.153073,-2.96647 -1.3848,-4.62199 -0.116361,-0.83133 -0.141544,-2.66896 -0.04859,-3.54556 0.204126,-1.9249 0.658156,-3.5172 1.47773,-5.18244 1.047072,-2.12746 2.521656,-3.83267 4.386561,-5.07261 1.760315,-1.17041 3.605932,-1.81304 5.654482,-1.96887 2.179441,-0.16578 4.596916,0.38933 6.384168,1.46596 l 0.260644,0.15701 -1.570456,4.6401 c -1.427472,4.21762 -1.577321,4.63389 -1.64583,4.57189 -0.06618,-0.0599 -0.0893,-0.0589 -0.189664,0.008 -0.235426,0.15681 -0.523795,0.46753 -0.643829,0.69373 -0.104666,0.19724 -0.12401,0.29245 -0.123544,0.60804 5.29e-4,0.31918 0.02156,0.41885 0.143584,0.67819 0.352779,0.74985 1.198425,1.46145 2.186244,1.8397 0.361672,0.13849 0.414821,0.14595 1.036039,0.14547 0.531112,-5.3e-4 0.73433,-0.021 1.075759,-0.10886 1.993157,-0.513 3.458403,-2.27715 4.005776,-4.82295 0.0916,-0.42603 0.10577,-0.63056 0.106923,-1.54349 0.0013,-0.99362 -0.006,-1.0835 -0.130476,-1.60996 -0.498751,-2.10987 -1.640671,-3.83882 -3.400407,-5.14846 -0.267745,-0.19926 -0.513448,-0.37252 -0.546005,-0.38501 -0.03256,-0.0125 -0.05949,-0.0468 -0.05986,-0.0762 -7.94e-4,-0.0583 5.098555,-15.1467 5.131337,-15.18326 0.03464,-0.0386 1.784471,0.86308 2.469798,1.27274 1.98297,1.18534 3.436435,2.32096 5.100889,3.98541 2.118725,2.11874 3.545845,4.10186 4.815145,6.69115 1.19348,2.43461 1.90689,4.90829 2.25268,7.81095 0.1188,0.99723 0.11964,3.9385 10e-4,4.9736 -0.25211,2.20728 -0.7647,4.29477 -1.53514,6.25172 -0.37831,0.96091 -1.25724,2.70922 -1.78181,3.54425 -1.65848,2.63999 -3.677802,4.73675 -6.153262,6.38918 -2.625127,1.75234 -5.52123,2.82564 -8.663366,3.21065 -0.743661,0.0911 -3.084901,0.13145 -3.835318,0.0661 z"
         id="path82" />
      <path
         style="fill:none;stroke-width:0.0467722"
         d="m 84.395945,245.4801 c -6.614226,-0.57631 -12.157093,-4.22762 -14.776823,-9.73407 -0.713817,-1.50038 -1.153073,-2.96647 -1.3848,-4.62199 -0.116361,-0.83133 -0.141544,-2.66896 -0.04859,-3.54556 0.204126,-1.9249 0.658156,-3.5172 1.47773,-5.18244 1.047072,-2.12746 2.521656,-3.83267 4.386561,-5.07261 1.760315,-1.17041 3.605932,-1.81304 5.654482,-1.96887 2.179441,-0.16578 4.596916,0.38933 6.384168,1.46596 l 0.260644,0.15701 -1.570456,4.6401 c -1.427472,4.21762 -1.577321,4.63389 -1.64583,4.57189 -0.06618,-0.0599 -0.0893,-0.0589 -0.189664,0.008 -0.235426,0.15681 -0.523795,0.46753 -0.643829,0.69373 -0.104666,0.19724 -0.12401,0.29245 -0.123544,0.60804 5.29e-4,0.31918 0.02156,0.41885 0.143584,0.67819 0.352779,0.74985 1.198425,1.46145 2.186244,1.8397 0.361672,0.13849 0.414821,0.14595 1.036039,0.14547 0.531112,-5.3e-4 0.73433,-0.021 1.075759,-0.10886 1.993157,-0.513 3.458403,-2.27715 4.005776,-4.82295 0.0916,-0.42603 0.10577,-0.63056 0.106923,-1.54349 0.0013,-0.99362 -0.006,-1.0835 -0.130476,-1.60996 -0.498751,-2.10987 -1.640671,-3.83882 -3.400407,-5.14846 -0.267745,-0.19926 -0.513448,-0.37252 -0.546005,-0.38501 -0.03256,-0.0125 -0.05949,-0.0468 -0.05986,-0.0762 -7.94e-4,-0.0583 5.098555,-15.1467 5.131337,-15.18326 0.03464,-0.0386 1.784471,0.86308 2.469798,1.27274 1.98297,1.18534 3.436435,2.32096 5.100889,3.98541 2.118725,2.11874 3.545845,4.10186 4.815145,6.69115 1.19348,2.43461 1.90689,4.90829 2.25268,7.81095 0.1188,0.99723 0.11964,3.9385 10e-4,4.9736 -0.25211,2.20728 -0.7647,4.29477 -1.53514,6.25172 -0.37831,0.96091 -1.25724,2.70922 -1.78181,3.54425 -1.65848,2.63999 -3.677802,4.73675 -6.153262,6.38918 -2.625127,1.75234 -5.52123,2.82564 -8.663366,3.21065 -0.743661,0.0911 -3.084901,0.13145 -3.835318,0.0661 z"
         id="path84" />
      <path
         style="fill:none;stroke-width:0.0467722"
         d="m 84.395945,245.4801 c -6.614226,-0.57631 -12.157093,-4.22762 -14.776823,-9.73407 -0.713817,-1.50038 -1.153073,-2.96647 -1.3848,-4.62199 -0.116361,-0.83133 -0.141544,-2.66896 -0.04859,-3.54556 0.204126,-1.9249 0.658156,-3.5172 1.47773,-5.18244 1.047072,-2.12746 2.521656,-3.83267 4.386561,-5.07261 1.760315,-1.17041 3.605932,-1.81304 5.654482,-1.96887 2.179441,-0.16578 4.596916,0.38933 6.384168,1.46596 l 0.260644,0.15701 -1.570456,4.6401 c -1.427472,4.21762 -1.577321,4.63389 -1.64583,4.57189 -0.06618,-0.0599 -0.0893,-0.0589 -0.189664,0.008 -0.235426,0.15681 -0.523795,0.46753 -0.643829,0.69373 -0.104666,0.19724 -0.12401,0.29245 -0.123544,0.60804 5.29e-4,0.31918 0.02156,0.41885 0.143584,0.67819 0.352779,0.74985 1.198425,1.46145 2.186244,1.8397 0.361672,0.13849 0.414821,0.14595 1.036039,0.14547 0.531112,-5.3e-4 0.73433,-0.021 1.075759,-0.10886 1.993157,-0.513 3.458403,-2.27715 4.005776,-4.82295 0.0916,-0.42603 0.10577,-0.63056 0.106923,-1.54349 0.0013,-0.99362 -0.006,-1.0835 -0.130476,-1.60996 -0.498751,-2.10987 -1.640671,-3.83882 -3.400407,-5.14846 -0.267745,-0.19926 -0.513448,-0.37252 -0.546005,-0.38501 -0.03256,-0.0125 -0.05949,-0.0468 -0.05986,-0.0762 -7.94e-4,-0.0583 5.098555,-15.1467 5.131337,-15.18326 0.03464,-0.0386 1.784471,0.86308 2.469798,1.27274 1.98297,1.18534 3.436435,2.32096 5.100889,3.98541 2.118725,2.11874 3.545845,4.10186 4.815145,6.69115 1.19348,2.43461 1.90689,4.90829 2.25268,7.81095 0.1188,0.99723 0.11964,3.9385 10e-4,4.9736 -0.25211,2.20728 -0.7647,4.29477 -1.53514,6.25172 -0.37831,0.96091 -1.25724,2.70922 -1.78181,3.54425 -1.65848,2.63999 -3.677802,4.73675 -6.153262,6.38918 -2.625127,1.75234 -5.52123,2.82564 -8.663366,3.21065 -0.743661,0.0911 -3.084901,0.13145 -3.835318,0.0661 z"
         id="path86" />
      <path
         style="fill:none;stroke-width:0.0467722"
         d="m 84.395945,245.4801 c -6.614226,-0.57631 -12.157093,-4.22762 -14.776823,-9.73407 -0.713817,-1.50038 -1.153073,-2.96647 -1.3848,-4.62199 -0.116361,-0.83133 -0.141544,-2.66896 -0.04859,-3.54556 0.204126,-1.9249 0.658156,-3.5172 1.47773,-5.18244 1.047072,-2.12746 2.521656,-3.83267 4.386561,-5.07261 1.760315,-1.17041 3.605932,-1.81304 5.654482,-1.96887 2.179441,-0.16578 4.596916,0.38933 6.384168,1.46596 l 0.260644,0.15701 -1.570456,4.6401 c -1.427472,4.21762 -1.577321,4.63389 -1.64583,4.57189 -0.06618,-0.0599 -0.0893,-0.0589 -0.189664,0.008 -0.235426,0.15681 -0.523795,0.46753 -0.643829,0.69373 -0.104666,0.19724 -0.12401,0.29245 -0.123544,0.60804 5.29e-4,0.31918 0.02156,0.41885 0.143584,0.67819 0.352779,0.74985 1.198425,1.46145 2.186244,1.8397 0.361672,0.13849 0.414821,0.14595 1.036039,0.14547 0.531112,-5.3e-4 0.73433,-0.021 1.075759,-0.10886 1.993157,-0.513 3.458403,-2.27715 4.005776,-4.82295 0.0916,-0.42603 0.10577,-0.63056 0.106923,-1.54349 0.0013,-0.99362 -0.006,-1.0835 -0.130476,-1.60996 -0.498751,-2.10987 -1.640671,-3.83882 -3.400407,-5.14846 -0.267745,-0.19926 -0.513448,-0.37252 -0.546005,-0.38501 -0.03256,-0.0125 -0.05949,-0.0468 -0.05986,-0.0762 -7.94e-4,-0.0583 5.098555,-15.1467 5.131337,-15.18326 0.03464,-0.0386 1.784471,0.86308 2.469798,1.27274 1.98297,1.18534 3.436435,2.32096 5.100889,3.98541 2.118725,2.11874 3.545845,4.10186 4.815145,6.69115 1.19348,2.43461 1.90689,4.90829 2.25268,7.81095 0.1188,0.99723 0.11964,3.9385 10e-4,4.9736 -0.25211,2.20728 -0.7647,4.29477 -1.53514,6.25172 -0.37831,0.96091 -1.25724,2.70922 -1.78181,3.54425 -1.65848,2.63999 -3.677802,4.73675 -6.153262,6.38918 -2.625127,1.75234 -5.52123,2.82564 -8.663366,3.21065 -0.743661,0.0911 -3.084901,0.13145 -3.835318,0.0661 z"
         id="path88" />
      <path
         style="fill:none;stroke-width:0.0467722"
         d="m 84.395945,245.4801 c -6.614226,-0.57631 -12.157093,-4.22762 -14.776823,-9.73407 -0.713817,-1.50038 -1.153073,-2.96647 -1.3848,-4.62199 -0.116361,-0.83133 -0.141544,-2.66896 -0.04859,-3.54556 0.204126,-1.9249 0.658156,-3.5172 1.47773,-5.18244 1.047072,-2.12746 2.521656,-3.83267 4.386561,-5.07261 1.760315,-1.17041 3.605932,-1.81304 5.654482,-1.96887 2.179441,-0.16578 4.596916,0.38933 6.384168,1.46596 l 0.260644,0.15701 -1.570456,4.6401 c -1.427472,4.21762 -1.577321,4.63389 -1.64583,4.57189 -0.06618,-0.0599 -0.0893,-0.0589 -0.189664,0.008 -0.235426,0.15681 -0.523795,0.46753 -0.643829,0.69373 -0.104666,0.19724 -0.12401,0.29245 -0.123544,0.60804 5.29e-4,0.31918 0.02156,0.41885 0.143584,0.67819 0.352779,0.74985 1.198425,1.46145 2.186244,1.8397 0.361672,0.13849 0.414821,0.14595 1.036039,0.14547 0.531112,-5.3e-4 0.73433,-0.021 1.075759,-0.10886 1.993157,-0.513 3.458403,-2.27715 4.005776,-4.82295 0.0916,-0.42603 0.10577,-0.63056 0.106923,-1.54349 0.0013,-0.99362 -0.006,-1.0835 -0.130476,-1.60996 -0.498751,-2.10987 -1.640671,-3.83882 -3.400407,-5.14846 -0.267745,-0.19926 -0.513448,-0.37252 -0.546005,-0.38501 -0.03256,-0.0125 -0.05949,-0.0468 -0.05986,-0.0762 -7.94e-4,-0.0583 5.098555,-15.1467 5.131337,-15.18326 0.03464,-0.0386 1.784471,0.86308 2.469798,1.27274 1.98297,1.18534 3.436435,2.32096 5.100889,3.98541 2.118725,2.11874 3.545845,4.10186 4.815145,6.69115 1.19348,2.43461 1.90689,4.90829 2.25268,7.81095 0.1188,0.99723 0.11964,3.9385 10e-4,4.9736 -0.25211,2.20728 -0.7647,4.29477 -1.53514,6.25172 -0.37831,0.96091 -1.25724,2.70922 -1.78181,3.54425 -1.65848,2.63999 -3.677802,4.73675 -6.153262,6.38918 -2.625127,1.75234 -5.52123,2.82564 -8.663366,3.21065 -0.743661,0.0911 -3.084901,0.13145 -3.835318,0.0661 z"
         id="path90" />
      <path
         style="fill:none;stroke-width:0.0467722"
         d="m 84.395945,245.4801 c -6.614226,-0.57631 -12.157093,-4.22762 -14.776823,-9.73407 -0.713817,-1.50038 -1.153073,-2.96647 -1.3848,-4.62199 -0.116361,-0.83133 -0.141544,-2.66896 -0.04859,-3.54556 0.204126,-1.9249 0.658156,-3.5172 1.47773,-5.18244 1.047072,-2.12746 2.521656,-3.83267 4.386561,-5.07261 1.760315,-1.17041 3.605932,-1.81304 5.654482,-1.96887 2.179441,-0.16578 4.596916,0.38933 6.384168,1.46596 l 0.260644,0.15701 -1.570456,4.6401 c -1.427472,4.21762 -1.577321,4.63389 -1.64583,4.57189 -0.06618,-0.0599 -0.0893,-0.0589 -0.189664,0.008 -0.235426,0.15681 -0.523795,0.46753 -0.643829,0.69373 -0.104666,0.19724 -0.12401,0.29245 -0.123544,0.60804 5.29e-4,0.31918 0.02156,0.41885 0.143584,0.67819 0.352779,0.74985 1.198425,1.46145 2.186244,1.8397 0.361672,0.13849 0.414821,0.14595 1.036039,0.14547 0.531112,-5.3e-4 0.73433,-0.021 1.075759,-0.10886 1.993157,-0.513 3.458403,-2.27715 4.005776,-4.82295 0.0916,-0.42603 0.10577,-0.63056 0.106923,-1.54349 0.0013,-0.99362 -0.006,-1.0835 -0.130476,-1.60996 -0.498751,-2.10987 -1.640671,-3.83882 -3.400407,-5.14846 -0.267745,-0.19926 -0.513448,-0.37252 -0.546005,-0.38501 -0.03256,-0.0125 -0.05949,-0.0468 -0.05986,-0.0762 -7.94e-4,-0.0583 5.098555,-15.1467 5.131337,-15.18326 0.03464,-0.0386 1.784471,0.86308 2.469798,1.27274 1.98297,1.18534 3.436435,2.32096 5.100889,3.98541 2.118725,2.11874 3.545845,4.10186 4.815145,6.69115 1.19348,2.43461 1.90689,4.90829 2.25268,7.81095 0.1188,0.99723 0.11964,3.9385 10e-4,4.9736 -0.25211,2.20728 -0.7647,4.29477 -1.53514,6.25172 -0.37831,0.96091 -1.25724,2.70922 -1.78181,3.54425 -1.65848,2.63999 -3.677802,4.73675 -6.153262,6.38918 -2.625127,1.75234 -5.52123,2.82564 -8.663366,3.21065 -0.743661,0.0911 -3.084901,0.13145 -3.835318,0.0661 z"
         id="path92" />
      <path
         style="fill:none;stroke-width:0.0467722"
         d="m 84.395945,245.4801 c -6.614226,-0.57631 -12.157093,-4.22762 -14.776823,-9.73407 -0.713817,-1.50038 -1.153073,-2.96647 -1.3848,-4.62199 -0.116361,-0.83133 -0.141544,-2.66896 -0.04859,-3.54556 0.204126,-1.9249 0.658156,-3.5172 1.47773,-5.18244 1.047072,-2.12746 2.521656,-3.83267 4.386561,-5.07261 1.760315,-1.17041 3.605932,-1.81304 5.654482,-1.96887 2.179441,-0.16578 4.596916,0.38933 6.384168,1.46596 l 0.260644,0.15701 -1.570456,4.6401 c -1.427472,4.21762 -1.577321,4.63389 -1.64583,4.57189 -0.06618,-0.0599 -0.0893,-0.0589 -0.189664,0.008 -0.235426,0.15681 -0.523795,0.46753 -0.643829,0.69373 -0.104666,0.19724 -0.12401,0.29245 -0.123544,0.60804 5.29e-4,0.31918 0.02156,0.41885 0.143584,0.67819 0.352779,0.74985 1.198425,1.46145 2.186244,1.8397 0.361672,0.13849 0.414821,0.14595 1.036039,0.14547 0.531112,-5.3e-4 0.73433,-0.021 1.075759,-0.10886 1.993157,-0.513 3.458403,-2.27715 4.005776,-4.82295 0.0916,-0.42603 0.10577,-0.63056 0.106923,-1.54349 0.0013,-0.99362 -0.006,-1.0835 -0.130476,-1.60996 -0.498751,-2.10987 -1.640671,-3.83882 -3.400407,-5.14846 -0.267745,-0.19926 -0.513448,-0.37252 -0.546005,-0.38501 -0.03256,-0.0125 -0.05949,-0.0468 -0.05986,-0.0762 -7.94e-4,-0.0583 5.098555,-15.1467 5.131337,-15.18326 0.03464,-0.0386 1.784471,0.86308 2.469798,1.27274 1.98297,1.18534 3.436435,2.32096 5.100889,3.98541 2.118725,2.11874 3.545845,4.10186 4.815145,6.69115 1.19348,2.43461 1.90689,4.90829 2.25268,7.81095 0.1188,0.99723 0.11964,3.9385 10e-4,4.9736 -0.25211,2.20728 -0.7647,4.29477 -1.53514,6.25172 -0.37831,0.96091 -1.25724,2.70922 -1.78181,3.54425 -1.65848,2.63999 -3.677802,4.73675 -6.153262,6.38918 -2.625127,1.75234 -5.52123,2.82564 -8.663366,3.21065 -0.743661,0.0911 -3.084901,0.13145 -3.835318,0.0661 z"
         id="path94" />
      <path
         style="fill:none;stroke-width:0.0467722"
         d="m 84.395945,245.4801 c -6.614226,-0.57631 -12.157093,-4.22762 -14.776823,-9.73407 -0.713817,-1.50038 -1.153073,-2.96647 -1.3848,-4.62199 -0.116361,-0.83133 -0.141544,-2.66896 -0.04859,-3.54556 0.204126,-1.9249 0.658156,-3.5172 1.47773,-5.18244 1.047072,-2.12746 2.521656,-3.83267 4.386561,-5.07261 1.760315,-1.17041 3.605932,-1.81304 5.654482,-1.96887 2.179441,-0.16578 4.596916,0.38933 6.384168,1.46596 l 0.260644,0.15701 -1.570456,4.6401 c -1.427472,4.21762 -1.577321,4.63389 -1.64583,4.57189 -0.06618,-0.0599 -0.0893,-0.0589 -0.189664,0.008 -0.235426,0.15681 -0.523795,0.46753 -0.643829,0.69373 -0.104666,0.19724 -0.12401,0.29245 -0.123544,0.60804 5.29e-4,0.31918 0.02156,0.41885 0.143584,0.67819 0.352779,0.74985 1.198425,1.46145 2.186244,1.8397 0.361672,0.13849 0.414821,0.14595 1.036039,0.14547 0.531112,-5.3e-4 0.73433,-0.021 1.075759,-0.10886 1.993157,-0.513 3.458403,-2.27715 4.005776,-4.82295 0.0916,-0.42603 0.10577,-0.63056 0.106923,-1.54349 0.0013,-0.99362 -0.006,-1.0835 -0.130476,-1.60996 -0.498751,-2.10987 -1.640671,-3.83882 -3.400407,-5.14846 -0.267745,-0.19926 -0.513448,-0.37252 -0.546005,-0.38501 -0.03256,-0.0125 -0.05949,-0.0468 -0.05986,-0.0762 -7.94e-4,-0.0583 5.098555,-15.1467 5.131337,-15.18326 0.03464,-0.0386 1.784471,0.86308 2.469798,1.27274 1.98297,1.18534 3.436435,2.32096 5.100889,3.98541 2.118725,2.11874 3.545845,4.10186 4.815145,6.69115 1.19348,2.43461 1.90689,4.90829 2.25268,7.81095 0.1188,0.99723 0.11964,3.9385 10e-4,4.9736 -0.25211,2.20728 -0.7647,4.29477 -1.53514,6.25172 -0.37831,0.96091 -1.25724,2.70922 -1.78181,3.54425 -1.65848,2.63999 -3.677802,4.73675 -6.153262,6.38918 -2.625127,1.75234 -5.52123,2.82564 -8.663366,3.21065 -0.743661,0.0911 -3.084901,0.13145 -3.835318,0.0661 z"
         id="path96" />
      <path
         style="fill:none;stroke-width:0.0467722"
         d="m 84.395945,245.4801 c -6.614226,-0.57631 -12.157093,-4.22762 -14.776823,-9.73407 -0.713817,-1.50038 -1.153073,-2.96647 -1.3848,-4.62199 -0.116361,-0.83133 -0.141544,-2.66896 -0.04859,-3.54556 0.204126,-1.9249 0.658156,-3.5172 1.47773,-5.18244 1.047072,-2.12746 2.521656,-3.83267 4.386561,-5.07261 1.760315,-1.17041 3.605932,-1.81304 5.654482,-1.96887 2.179441,-0.16578 4.596916,0.38933 6.384168,1.46596 l 0.260644,0.15701 -1.570456,4.6401 c -1.427472,4.21762 -1.577321,4.63389 -1.64583,4.57189 -0.06618,-0.0599 -0.0893,-0.0589 -0.189664,0.008 -0.235426,0.15681 -0.523795,0.46753 -0.643829,0.69373 -0.104666,0.19724 -0.12401,0.29245 -0.123544,0.60804 5.29e-4,0.31918 0.02156,0.41885 0.143584,0.67819 0.352779,0.74985 1.198425,1.46145 2.186244,1.8397 0.361672,0.13849 0.414821,0.14595 1.036039,0.14547 0.531112,-5.3e-4 0.73433,-0.021 1.075759,-0.10886 1.993157,-0.513 3.458403,-2.27715 4.005776,-4.82295 0.0916,-0.42603 0.10577,-0.63056 0.106923,-1.54349 0.0013,-0.99362 -0.006,-1.0835 -0.130476,-1.60996 -0.498751,-2.10987 -1.640671,-3.83882 -3.400407,-5.14846 -0.267745,-0.19926 -0.513448,-0.37252 -0.546005,-0.38501 -0.03256,-0.0125 -0.05949,-0.0468 -0.05986,-0.0762 -7.94e-4,-0.0583 5.098555,-15.1467 5.131337,-15.18326 0.03464,-0.0386 1.784471,0.86308 2.469798,1.27274 1.98297,1.18534 3.436435,2.32096 5.100889,3.98541 2.118725,2.11874 3.545845,4.10186 4.815145,6.69115 1.19348,2.43461 1.90689,4.90829 2.25268,7.81095 0.1188,0.99723 0.11964,3.9385 10e-4,4.9736 -0.25211,2.20728 -0.7647,4.29477 -1.53514,6.25172 -0.37831,0.96091 -1.25724,2.70922 -1.78181,3.54425 -1.65848,2.63999 -3.677802,4.73675 -6.153262,6.38918 -2.625127,1.75234 -5.52123,2.82564 -8.663366,3.21065 -0.743661,0.0911 -3.084901,0.13145 -3.835318,0.0661 z"
         id="path98" />
    </g>
  </g>
  <g
     inkscape:groupmode="layer"
     id="layer2"
     inkscape:label="Layer 2" />
</svg>
