<?xml version="1.0" encoding="UTF-8" standalone="no"?>
<svg
   xmlns:dc="http://purl.org/dc/elements/1.1/"
   xmlns:cc="http://creativecommons.org/ns#"
   xmlns:rdf="http://www.w3.org/1999/02/22-rdf-syntax-ns#"
   xmlns:svg="http://www.w3.org/2000/svg"
   xmlns="http://www.w3.org/2000/svg"
   xmlns:sodipodi="http://sodipodi.sourceforge.net/DTD/sodipodi-0.dtd"
   xmlns:inkscape="http://www.inkscape.org/namespaces/inkscape"
   sodipodi:docname="web.svg"
   inkscape:version="1.0 (4035a4fb49, 2020-05-01)"
   id="svg8"
   version="1.1"
   viewBox="0 0 210 297"
   height="297mm"
   width="210mm">
  <defs
     id="defs2">
    <inkscape:path-effect
       hide_knots="false"
       only_selected="false"
       apply_with_radius="true"
       apply_no_radius="true"
       use_knot_distance="true"
       flexible="false"
       chamfer_steps="1"
       radius="25"
       mode="F"
       method="auto"
       unit="px"
       satellites_param="F,0,0,1,0,6.6145833,0,1 @ F,0,0,1,0,0,0,1 @ F,0,1,1,0,0,0,1 @ F,0,0,1,0,6.6145833,0,1 @ F,0,0,1,0,6.6145833,0,1"
       lpeversion="1"
       is_visible="true"
       id="path-effect885"
       effect="fillet_chamfer" />
    <inkscape:path-effect
       hide_knots="false"
       only_selected="false"
       apply_with_radius="true"
       apply_no_radius="true"
       use_knot_distance="true"
       flexible="false"
       chamfer_steps="1"
       radius="25"
       mode="F"
       method="auto"
       unit="px"
       satellites_param="C,0,0,1,0,0,0,1 @ C,0,0,1,0,0,0,1 @ C,0,0,1,0,0,0,1 @ C,0,0,1,0,0,0,1"
       lpeversion="1"
       is_visible="true"
       id="path-effect860"
       effect="fillet_chamfer" />
  </defs>
  <sodipodi:namedview
     inkscape:snap-global="true"
     inkscape:window-maximized="1"
     inkscape:window-y="28"
     inkscape:window-x="0"
     inkscape:window-height="835"
     inkscape:window-width="1600"
     showgrid="false"
     inkscape:document-rotation="0"
     inkscape:current-layer="layer1"
     inkscape:document-units="mm"
     inkscape:cy="481.91409"
     inkscape:cx="349.26871"
     inkscape:zoom="2.1497157"
     inkscape:pageshadow="2"
     inkscape:pageopacity="0.0"
     borderopacity="1.0"
     bordercolor="#666666"
     pagecolor="#ffffff"
     id="base"
     inkscape:snap-bbox="true"
     inkscape:object-paths="true" />
  <metadata
     id="metadata5">
    <rdf:RDF>
      <cc:Work
         rdf:about="">
        <dc:format>image/svg+xml</dc:format>
        <dc:type
           rdf:resource="http://purl.org/dc/dcmitype/StillImage" />
        <dc:title />
      </cc:Work>
    </rdf:RDF>
  </metadata>
  <g
     id="layer1"
     inkscape:groupmode="layer"
     inkscape:label="Layer 1">
    <path
       sodipodi:nodetypes="cccccc"
       inkscape:original-d="m 75.303565,91.851556 h 46.233845 l 16.42135,16.384414 v 64.6681 H 75.303565 Z"
       inkscape:path-effect="#path-effect885"
       d="m 81.918148,91.851556 39.619262,0 16.42135,16.384414 v 58.05352 a 6.6145833,6.6145833 135 0 1 -6.61458,6.61458 H 81.918148 a 6.6145833,6.6145833 45 0 1 -6.614583,-6.61458 V 98.466139 a 6.6145833,6.6145833 135 0 1 6.614583,-6.614583 z"
       style="fill:#ffffff;fill-opacity:1;fill-rule:evenodd;stroke:#000000;stroke-width:0.65361;stroke-miterlimit:4;stroke-dasharray:none;stroke-opacity:1"
       id="rect10" />
    <path
       sodipodi:nodetypes="scczcccs"
       d="m 121.53741,91.851556 c -0.002,-0.0024 0.20383,0.203824 0.20383,0.203824 l 16.0155,16.0155 c 0,0 0.20899,0.16842 0.19905,0.19904 -0.01,0.0306 -0.27889,0 -0.27889,0 H 121.53741 V 92.170932 c 0,0 0.002,-0.316958 0,-0.319376 z"
       style="fill:#efefef;fill-opacity:1;stroke:#000000;stroke-width:0.65361;stroke-miterlimit:4;stroke-dasharray:none;stroke-opacity:1"
       id="rect862" />
    <rect
       ry="0"
       y="86.876991"
       x="15.352353"
       height="91.181511"
       width="181.31882"
       id="rect933"
       style="fill:none;fill-opacity:1;stroke:#000000;stroke-width:0.784801;stroke-miterlimit:4;stroke-dasharray:none;stroke-opacity:1"
       inkscape:export-xdpi="71.723389"
       inkscape:export-ydpi="71.723389" />
    <path
       id="path849"
       style="fill:#4192f3;fill-opacity:1;stroke:none;stroke-width:1.19355;stroke-opacity:1"
       d="m 126.9632,135.30855 a 20.276934,20.276934 0 0 1 -20.27693,20.27694 20.276934,20.276934 0 0 1 -20.276937,-20.27694 20.276934,20.276934 0 0 1 20.276937,-20.27693 20.276934,20.276934 0 0 1 20.27693,20.27693 z" />
    <path
       d="m 114.59894,132.60414 c -1.61073,-1.38778 -3.3411,-3.70319 -2.60965,-5.84488 0.73145,-2.14169 2.92431,-4.11081 2.9897,-6.07232 0.0654,-1.96151 -2.08705,-4.68904 -1.90767,-4.62957 8.07022,2.67527 13.89188,10.28337 13.89188,19.25118 0,3.09281 -0.69242,6.02389 -1.93073,8.64667 -0.0489,0.10351 -1.54568,-0.31643 -2.62148,-2.6528 -1.38429,-3.00631 -0.11999,-5.36957 -1.68915,-6.99385 -1.56917,-1.62428 -4.51217,-0.31665 -6.1229,-1.70443 z"
       style="fill:#18ce0d;fill-opacity:1;stroke:none;stroke-width:1.19355;stroke-opacity:1"
       id="path849-3"
       sodipodi:nodetypes="zzzsssszz" />
    <path
       id="path849-3-6"
       style="fill:#18ce0d;fill-opacity:1;stroke:none;stroke-width:1.19355;stroke-opacity:1"
       d="m 90.867239,126.61658 c -0.164637,-2.47309 2.726466,-6.79311 2.862943,-6.90659 1.284577,-1.06814 2.703195,-1.98061 4.226904,-2.70845 0.565592,-0.27017 1.743383,0.23651 3.013284,0.60256 1.2699,0.36604 3.61465,-1.15139 4.78207,0.0409 1.16742,1.1923 -3.30232,3.87422 -4.32912,6.46768 -1.0268,2.59346 -1.09457,4.89423 0.49215,6.46126 1.58672,1.56703 5.47555,-1.12009 8.14372,3.55708 2.66817,4.67717 -1.31815,16.27621 -3.77342,18.32978 -1.06834,0.89355 -2.79586,-4.47892 -5.00318,-7.4493 -1.965749,-2.64531 -4.600157,-3.37266 -5.233277,-5.64235 -0.633121,-2.26969 4.778557,-6.72531 3.10065,-9.6628 -1.677912,-2.93749 -7.947979,0.38959 -8.282724,-3.08978 z"
       sodipodi:nodetypes="csszzzzzsszzc" />
    <path
       d="m 126.9632,135.30855 a 20.276934,20.276934 0 0 1 -20.27694,20.27694 20.276934,20.276934 0 0 1 -20.276932,-20.27694 20.276934,20.276934 0 0 1 20.276932,-20.27693 20.276934,20.276934 0 0 1 20.27694,20.27693 z"
       style="fill:none;fill-opacity:1;stroke:#000000;stroke-width:1.19355;stroke-opacity:1"
       id="path849-7" />
    <path
       style="fill:none;stroke:#000000;stroke-width:1;stroke-linecap:butt;stroke-linejoin:miter;stroke-miterlimit:4;stroke-dasharray:none;stroke-opacity:1"
       d="m 86.409332,135.30855 h 10.138467 10.138471 10.13846 10.13847"
       id="path899"
       sodipodi:nodetypes="ccccc" />
    <path
       style="fill:none;stroke:#000000;stroke-width:1;stroke-linecap:butt;stroke-linejoin:miter;stroke-miterlimit:4;stroke-dasharray:none;stroke-opacity:1"
       d="m 106.68626,115.03162 v 10.13847 10.13846 10.13847 10.13847"
       id="path901"
       sodipodi:nodetypes="ccccc" />
    <path
       style="fill:none;stroke:#000000;stroke-width:1;stroke-linecap:butt;stroke-linejoin:miter;stroke-miterlimit:4;stroke-dasharray:none;stroke-opacity:1"
       d="m 106.68626,115.03162 c 0,0 -10.515574,5.92353 -10.515576,20.27693 -10e-7,14.3534 10.515576,20.27694 10.515576,20.27694"
       id="path905"
       sodipodi:nodetypes="czc" />
    <path
       sodipodi:nodetypes="czc"
       id="path905-5"
       d="m 106.68626,115.03162 c 0,0 10.51557,5.92353 10.51557,20.27693 0,14.3534 -10.51557,20.27694 -10.51557,20.27694"
       style="fill:none;stroke:#000000;stroke-width:1;stroke-linecap:butt;stroke-linejoin:miter;stroke-miterlimit:4;stroke-dasharray:none;stroke-opacity:1" />
    <path
       style="fill:none;stroke:#000000;stroke-width:1;stroke-linecap:butt;stroke-linejoin:miter;stroke-miterlimit:4;stroke-dasharray:none;stroke-opacity:1"
       d="m 88.996954,125.39683 h 17.691386 17.69139"
       id="path940"
       sodipodi:nodetypes="ccc" />
    <path
       sodipodi:nodetypes="ccc"
       id="path940-3"
       d="m 88.942487,145.30954 h 17.691383 17.6914"
       style="fill:none;stroke:#000000;stroke-width:1;stroke-linecap:butt;stroke-linejoin:miter;stroke-miterlimit:4;stroke-dasharray:none;stroke-opacity:1" />
  </g>
</svg>
