<?xml version="1.0" encoding="UTF-8" standalone="no"?>
<svg
   xmlns:dc="http://purl.org/dc/elements/1.1/"
   xmlns:cc="http://creativecommons.org/ns#"
   xmlns:rdf="http://www.w3.org/1999/02/22-rdf-syntax-ns#"
   xmlns:svg="http://www.w3.org/2000/svg"
   xmlns="http://www.w3.org/2000/svg"
   xmlns:sodipodi="http://sodipodi.sourceforge.net/DTD/sodipodi-0.dtd"
   xmlns:inkscape="http://www.inkscape.org/namespaces/inkscape"
   width="210mm"
   height="297mm"
   viewBox="0 0 210 297"
   version="1.1"
   id="svg8"
   inkscape:version="1.0 (4035a4fb49, 2020-05-01)"
   sodipodi:docname="pdf.svg">
  <defs
     id="defs2">
    <inkscape:path-effect
       effect="fillet_chamfer"
       id="path-effect885"
       is_visible="true"
       lpeversion="1"
       satellites_param="F,0,0,1,0,6.6145833,0,1 @ F,0,0,1,0,0,0,1 @ F,0,1,1,0,0,0,1 @ F,0,0,1,0,6.6145833,0,1 @ F,0,0,1,0,6.6145833,0,1"
       unit="px"
       method="auto"
       mode="F"
       radius="25"
       chamfer_steps="1"
       flexible="false"
       use_knot_distance="true"
       apply_no_radius="true"
       apply_with_radius="true"
       only_selected="false"
       hide_knots="false" />
    <inkscape:path-effect
       effect="fillet_chamfer"
       id="path-effect860"
       is_visible="true"
       lpeversion="1"
       satellites_param="C,0,0,1,0,0,0,1 @ C,0,0,1,0,0,0,1 @ C,0,0,1,0,0,0,1 @ C,0,0,1,0,0,0,1"
       unit="px"
       method="auto"
       mode="F"
       radius="25"
       chamfer_steps="1"
       flexible="false"
       use_knot_distance="true"
       apply_no_radius="true"
       apply_with_radius="true"
       only_selected="false"
       hide_knots="false" />
  </defs>
  <sodipodi:namedview
     id="base"
     pagecolor="#ffffff"
     bordercolor="#666666"
     borderopacity="1.0"
     inkscape:pageopacity="0.0"
     inkscape:pageshadow="2"
     inkscape:zoom="2.618663"
     inkscape:cx="386.84118"
     inkscape:cy="550.71299"
     inkscape:document-units="mm"
     inkscape:current-layer="layer1"
     inkscape:document-rotation="0"
     showgrid="false"
     inkscape:window-width="1600"
     inkscape:window-height="835"
     inkscape:window-x="0"
     inkscape:window-y="28"
     inkscape:window-maximized="1"
     inkscape:snap-global="true" />
  <metadata
     id="metadata5">
    <rdf:RDF>
      <cc:Work
         rdf:about="">
        <dc:format>image/svg+xml</dc:format>
        <dc:type
           rdf:resource="http://purl.org/dc/dcmitype/StillImage" />
        <dc:title />
      </cc:Work>
    </rdf:RDF>
  </metadata>
  <g
     inkscape:label="Layer 1"
     inkscape:groupmode="layer"
     id="layer1">
    <path
       id="rect10"
       style="fill:#ffffff;fill-opacity:1;fill-rule:evenodd;stroke:#000000;stroke-width:0.65361;stroke-miterlimit:4;stroke-dasharray:none;stroke-opacity:1"
       d="m 81.918148,91.851556 39.619262,0 16.42135,16.384414 v 58.05352 a 6.6145833,6.6145833 135 0 1 -6.61458,6.61458 H 81.918148 a 6.6145833,6.6145833 45 0 1 -6.614583,-6.61458 V 98.466139 a 6.6145833,6.6145833 135 0 1 6.614583,-6.614583 z"
       inkscape:path-effect="#path-effect885"
       inkscape:original-d="m 75.303565,91.851556 h 46.233845 l 16.42135,16.384414 v 64.6681 H 75.303565 Z"
       sodipodi:nodetypes="cccccc" />
    <path
       id="rect862"
       style="fill:#efefef;fill-opacity:1;stroke:#000000;stroke-width:0.65361;stroke-miterlimit:4;stroke-dasharray:none;stroke-opacity:1"
       d="m 121.53741,91.851556 c -0.002,-0.0024 0.20383,0.203824 0.20383,0.203824 l 16.0155,16.0155 c 0,0 0.20899,0.16842 0.19905,0.19904 -0.01,0.0306 -0.27889,0 -0.27889,0 H 121.53741 V 92.170932 c 0,0 0.002,-0.316958 0,-0.319376 z"
       sodipodi:nodetypes="scczcccs" />
    <rect
       inkscape:export-ydpi="71.723389"
       inkscape:export-xdpi="71.723389"
       style="fill:none;fill-opacity:1;stroke:#000000;stroke-width:0.784801;stroke-miterlimit:4;stroke-dasharray:none;stroke-opacity:1"
       id="rect933"
       width="181.31882"
       height="91.181511"
       x="15.352353"
       y="86.876991"
       ry="0" />
    <path
       d="m 127.15246,134.41096 a 20.276934,20.276934 0 0 1 -20.27693,20.27694 20.276934,20.276934 0 0 1 -20.276937,-20.27694 20.276934,20.276934 0 0 1 20.276937,-20.27693 20.276934,20.276934 0 0 1 20.27693,20.27693 z"
       style="fill:#4192f3;fill-opacity:1;stroke:none;stroke-width:1.19355;stroke-opacity:1"
       id="path849" />
    <path
       sodipodi:nodetypes="ssccss"
       id="path849-3"
       style="fill:#18ce0d;fill-opacity:1;stroke:none;stroke-width:1.19355;stroke-opacity:1"
       d="m 127.15246,134.41096 c 0,3.09281 -0.69243,6.02388 -1.93073,8.64667 -0.11175,0.23669 -0.22795,0.47088 -0.34849,0.70244 -25.826528,35.81982 -49.742646,-35.51106 -12.1541,-28.77134 -1.51396,4.19308 0.36206,0.11158 0.54144,0.17105 8.07022,2.67527 13.89188,10.28337 13.89188,19.25118 z" />
    <path
       d="m 77.769187,131.73662 a 20.276934,20.276934 0 0 1 -20.27693,20.27694 20.276934,20.276934 0 0 1 -20.276936,-20.27694 20.276934,20.276934 0 0 1 20.276936,-20.27693 20.276934,20.276934 0 0 1 20.27693,20.27693 z"
       style="fill:#18ce0d;fill-opacity:1;stroke:none;stroke-width:1.19355;stroke-opacity:1"
       id="path849-3-6" />
  </g>
</svg>
