<?xml version="1.0" encoding="UTF-8" standalone="no"?>
<svg
   width="99.491325mm"
   height="99.491325mm"
   viewBox="0 0 99.491325 99.491325"
   version="1.1"
   id="svg8"
   xmlns:xlink="http://www.w3.org/1999/xlink"
   xmlns="http://www.w3.org/2000/svg"
   xmlns:svg="http://www.w3.org/2000/svg"
   xmlns:rdf="http://www.w3.org/1999/02/22-rdf-syntax-ns#"
   xmlns:cc="http://creativecommons.org/ns#"
   xmlns:dc="http://purl.org/dc/elements/1.1/">
  <defs
     id="defs2">
    <linearGradient
       id="linearGradient895">
      <stop
         style="stop-color:#f9d300;stop-opacity:1;"
         offset="0"
         id="stop891" />
      <stop
         style="stop-color:#f9f3dd;stop-opacity:1;"
         offset="1"
         id="stop893" />
    </linearGradient>
    <linearGradient
       xlink:href="#linearGradient895"
       id="linearGradient897"
       x1="25.939579"
       y1="82.039009"
       x2="87.787865"
       y2="20.190723"
       gradientUnits="userSpaceOnUse"
       spreadMethod="pad" />
  </defs>
  <metadata
     id="metadata5">
    <rdf:RDF>
      <cc:Work
         rdf:about="">
        <dc:format>image/svg+xml</dc:format>
        <dc:type
           rdf:resource="http://purl.org/dc/dcmitype/StillImage" />
        <dc:title />
      </cc:Work>
    </rdf:RDF>
  </metadata>
  <g
     id="layer1"
     transform="translate(-0.25433875,-0.25433873)">
    <rect
       style="fill:none;stroke:none;stroke-width:0.508678;stroke-miterlimit:4;stroke-dasharray:none;stroke-opacity:1"
       id="rect837"
       width="99.491318"
       height="99.491325"
       x="0.25433874"
       y="0.25433874" />
    <path
       style="mix-blend-mode:normal;fill:url(#linearGradient897);fill-opacity:1;fill-rule:nonzero;stroke:none;stroke-width:2.4735;stroke-linecap:round;stroke-linejoin:round;stroke-opacity:1"
       d="m 13.903044,24.050066 v 53.899868 a 3.96875,3.96875 45 0 0 3.96875,3.96875 h 65.667842 a 4.0171366,4.0171366 135.34715 0 0 4.016842,-3.968459 L 88.059794,36.417248 A 3.9209462,3.9209462 45.347152 0 0 84.139136,32.448789 H 56.210963 a 8.2574807,8.2574807 25.670094 0 1 -6.448009,-3.099073 l -4.935462,-6.169327 a 8.2574807,8.2574807 25.670094 0 0 -6.448009,-3.099073 l -20.507689,0 a 3.96875,3.96875 135 0 0 -3.96875,3.96875 z"
       id="path446" />
  </g>
</svg>
