<?xml version="1.0" encoding="UTF-8" standalone="no"?>
<svg
   id="svg8"
   version="1.1"
   viewBox="0 0 99.393349 99.393341"
   height="99.393341mm"
   width="99.393349mm"
   xmlns="http://www.w3.org/2000/svg"
   xmlns:svg="http://www.w3.org/2000/svg"
   xmlns:rdf="http://www.w3.org/1999/02/22-rdf-syntax-ns#"
   xmlns:cc="http://creativecommons.org/ns#"
   xmlns:dc="http://purl.org/dc/elements/1.1/">
  <defs
     id="defs2" />
  <metadata
     id="metadata5">
    <rdf:RDF>
      <cc:Work
         rdf:about="">
        <dc:format>image/svg+xml</dc:format>
        <dc:type
           rdf:resource="http://purl.org/dc/dcmitype/StillImage" />
        <dc:title />
      </cc:Work>
    </rdf:RDF>
  </metadata>
  <g
     id="layer1"
     transform="translate(-0.30332944,-0.303328)">
    <rect
       ry="0"
       y="0.30332801"
       x="-99.696678"
       height="99.393341"
       width="99.393349"
       id="rect933"
       style="fill:none;fill-opacity:1;stroke:none;stroke-width:0.606656;stroke-miterlimit:4;stroke-dasharray:none;stroke-opacity:1"
       transform="scale(-1,1)" />
    <g
       id="path569"
       transform="matrix(1.16623,0,0,1.16623,21.107186,11.225065)">
      <path
         id="path1139"
         style="color:#000000;fill:none;fill-opacity:1;stroke:#c529ff;stroke-width:2;stroke-linecap:round;stroke-linejoin:round;stroke-dasharray:none;stroke-opacity:1"
         d="m 12.755977,12.63623 a 5.0005,5.0005 0 0 0 -5.3676314,4.97489 l -0.031006,15.591814 a 5.0005,5.0005 0 0 0 0,0.01964 l 0.031006,15.589746 a 5.0005,5.0005 0 0 0 7.4904994,4.325834 l 13.517521,-7.769035 a 5.0005,5.0005 0 0 0 0.01757,-0.0098 l 13.486515,-7.822262 a 5.0005,5.0005 0 0 0 0,-8.650634 L 28.413936,21.06414 a 5.0005,5.0005 0 0 0 -0.01757,-0.0098 L 14.878845,13.286837 A 5.0005,5.0005 0 0 0 12.755977,12.63623 Z" />
    </g>
  </g>
</svg>
