<?xml version="1.0" encoding="UTF-8" standalone="no"?>
<svg
   id="svg8"
   version="1.1"
   viewBox="0 0 99.393349 99.393341"
   height="99.393341mm"
   width="99.393349mm"
   xmlns="http://www.w3.org/2000/svg"
   xmlns:svg="http://www.w3.org/2000/svg"
   xmlns:rdf="http://www.w3.org/1999/02/22-rdf-syntax-ns#"
   xmlns:cc="http://creativecommons.org/ns#"
   xmlns:dc="http://purl.org/dc/elements/1.1/">
  <defs
     id="defs2" />
  <metadata
     id="metadata5">
    <rdf:RDF>
      <cc:Work
         rdf:about="">
        <dc:format>image/svg+xml</dc:format>
        <dc:type
           rdf:resource="http://purl.org/dc/dcmitype/StillImage" />
        <dc:title />
      </cc:Work>
    </rdf:RDF>
  </metadata>
  <g
     id="layer1"
     transform="translate(-0.30332944,-0.303328)">
    <rect
       ry="0"
       y="0.30332801"
       x="-99.696678"
       height="99.393341"
       width="99.393349"
       id="rect933"
       style="fill:none;fill-opacity:1;stroke:none;stroke-width:0.606656;stroke-miterlimit:4;stroke-dasharray:none;stroke-opacity:1"
       transform="scale(-1,1)" />
    <path
       d="M 74.011281,49.99999 A 24.011278,24.011276 0 0 1 49.999994,74.011277 24.011278,24.011276 0 0 1 25.988719,49.99999 24.011278,24.011276 0 0 1 49.999994,25.988719 24.011278,24.011276 0 0 1 74.011281,49.99999 Z"
       style="fill:none;fill-opacity:1;stroke:#0c70f2;stroke-width:1.97744;stroke-dasharray:none;stroke-opacity:1"
       id="path849-7" />
    <path
       style="fill:none;stroke:#0c70f2;stroke-width:1.97744;stroke-linecap:butt;stroke-linejoin:miter;stroke-miterlimit:4;stroke-dasharray:none;stroke-opacity:1"
       d="M 25.988724,49.99999 H 37.994363 50.000007 62.005638 74.011281"
       id="path899" />
    <path
       style="fill:none;stroke:#0c70f2;stroke-width:1.97744;stroke-linecap:butt;stroke-linejoin:miter;stroke-miterlimit:4;stroke-dasharray:none;stroke-opacity:1"
       d="M 49.999994,25.988719 V 37.99436 49.99999 62.005632 74.011277"
       id="path901" />
    <path
       style="fill:none;stroke:#0c70f2;stroke-width:1.97744;stroke-linecap:butt;stroke-linejoin:miter;stroke-miterlimit:4;stroke-dasharray:none;stroke-opacity:1"
       d="m 49.999994,25.988719 c 0,0 -12.452197,7.014449 -12.452199,24.011271 -2e-6,16.996823 12.452199,24.011287 12.452199,24.011287"
       id="path905" />
    <path
       id="path905-5"
       d="m 49.999994,25.988719 c 0,0 12.452193,7.014449 12.452193,24.011271 0,16.996823 -12.452193,24.011287 -12.452193,24.011287"
       style="fill:none;stroke:#0c70f2;stroke-width:1.97744;stroke-linecap:butt;stroke-linejoin:miter;stroke-miterlimit:4;stroke-dasharray:none;stroke-opacity:1" />
    <path
       style="fill:none;stroke:#0c70f2;stroke-width:1.97744;stroke-linecap:butt;stroke-linejoin:miter;stroke-miterlimit:4;stroke-dasharray:none;stroke-opacity:1"
       d="M 29.0529,38.262858 H 50.002457 70.952021"
       id="path940" />
    <path
       id="path940-3"
       d="M 28.988401,61.842832 H 49.937955 70.887531"
       style="fill:none;stroke:#0c70f2;stroke-width:1.97744;stroke-linecap:butt;stroke-linejoin:miter;stroke-miterlimit:4;stroke-dasharray:none;stroke-opacity:1" />
  </g>
</svg>
